<?xml version="1.0" standalone="no"?>
<!DOCTYPE svg PUBLIC "-//W3C//DTD SVG 20010904//EN"
 "http://www.w3.org/TR/2001/REC-SVG-20010904/DTD/svg10.dtd">
<svg version="1.0" xmlns="http://www.w3.org/2000/svg"
 width="1080.000000pt" height="1080.000000pt" viewBox="0 0 1080.000000 1080.000000"
 preserveAspectRatio="xMidYMid meet">

<g transform="translate(0.000000,1080.000000) scale(0.100000,-0.100000)"
fill="#000000" stroke="none">
<path d="M6575 8949 c-27 -4 -176 -12 -330 -18 -315 -12 -463 -23 -1225 -86
-294 -24 -728 -58 -965 -75 -526 -37 -545 -39 -545 -66 0 -11 12 -13 58 -9 31
3 206 10 387 15 351 11 576 23 1335 70 439 27 927 48 1095 46 39 -1 121 3 183
7 l112 9 0 -159 c0 -87 7 -212 15 -278 8 -66 15 -123 15 -127 0 -5 4 -8 9 -8
5 0 21 64 37 143 25 125 28 165 29 328 0 143 -3 190 -14 202 -15 19 -102 21
-196 6z"/>
<path d="M3372 8593 c-15 -34 -17 -130 -24 -983 -4 -545 -3 -1184 3 -1510 15
-874 15 -2117 1 -2730 -13 -544 -12 -558 8 -694 19 -130 25 -156 33 -145 13
16 50 226 57 324 14 184 30 1108 30 1705 -1 523 -8 956 -29 1765 -6 220 -16
634 -21 920 -6 286 -16 644 -22 795 -14 338 -16 526 -4 563 13 42 -12 34 -32
-10z"/>
<path d="M4795 2283 c-586 -36 -880 -42 -1665 -34 -301 3 -460 0 -670 -13
-213 -13 -587 -25 -830 -27 -12 0 -12 -2 2 -10 43 -25 247 -31 853 -24 418 4
670 3 775 -5 267 -19 812 -28 1071 -19 134 5 417 13 629 19 354 8 394 11 499
34 161 36 161 39 4 67 -89 15 -154 18 -363 17 -140 -1 -277 -3 -305 -5z"/>
</g>
</svg>
