<?xml version="1.0" standalone="no"?>
<!DOCTYPE svg PUBLIC "-//W3C//DTD SVG 20010904//EN"
 "http://www.w3.org/TR/2001/REC-SVG-20010904/DTD/svg10.dtd">
<svg version="1.0" xmlns="http://www.w3.org/2000/svg"
 width="1080.000000pt" height="1080.000000pt" viewBox="0 0 1080.000000 1080.000000"
 preserveAspectRatio="xMidYMid meet">

<g transform="translate(0.000000,1080.000000) scale(0.100000,-0.100000)"
fill="#000000" stroke="none">
<path d="M6575 8949 c-27 -4 -176 -12 -330 -18 -315 -12 -463 -23 -1225 -86
-294 -24 -728 -58 -965 -75 -526 -37 -545 -39 -545 -66 0 -11 12 -13 58 -9 31
3 206 10 387 15 351 11 576 23 1335 70 439 27 927 48 1095 46 39 -1 121 3 183
7 l112 9 0 -154 c0 -136 10 -273 25 -364 5 -28 2 -33 -25 -42 -50 -18 -170
-114 -170 -137 0 -5 -9 -16 -19 -22 -26 -16 -102 -117 -134 -178 -84 -159
-118 -360 -83 -491 19 -72 63 -150 113 -199 55 -55 161 -107 235 -116 33 -4
61 -9 64 -11 2 -3 -1 -36 -7 -74 -18 -112 -51 -2409 -34 -2393 3 4 13 42 21
85 12 60 17 212 24 644 5 311 14 797 21 1080 8 283 14 548 14 588 0 57 3 72
15 72 8 0 47 5 87 10 327 43 492 387 372 779 -44 145 -144 279 -256 343 -42
24 -59 28 -131 28 -75 0 -83 2 -78 18 3 9 15 69 28 132 18 94 22 149 23 301 0
143 -3 190 -14 202 -15 19 -102 21 -196 6z m313 -736 c42 -13 70 -32 122 -84
81 -79 122 -154 151 -277 39 -163 23 -331 -43 -441 -77 -129 -223 -206 -393
-205 -174 1 -301 74 -372 213 -26 52 -28 65 -28 171 0 94 4 129 24 190 63 198
171 347 267 371 48 12 61 23 43 35 -16 10 85 42 135 43 22 1 64 -7 94 -16z"/>
<path d="M3372 8593 c-15 -34 -17 -130 -24 -983 -4 -545 -3 -1184 3 -1510 15
-874 15 -2117 1 -2730 -13 -544 -12 -558 8 -694 19 -130 25 -156 33 -145 13
16 50 226 57 324 14 184 30 1108 30 1705 -1 523 -8 956 -29 1765 -6 220 -16
634 -21 920 -6 286 -16 644 -22 795 -14 338 -16 526 -4 563 13 42 -12 34 -32
-10z"/>
<path d="M7384 6727 c-117 -70 -176 -112 -314 -226 -157 -130 -250 -220 -250
-243 0 -22 -13 -31 194 132 340 265 489 389 470 390 -5 0 -50 -24 -100 -53z"/>
<path d="M6082 6551 c2 -6 37 -36 79 -68 42 -32 133 -102 203 -155 129 -99
164 -123 172 -115 9 9 -117 115 -215 182 -56 39 -130 91 -163 118 -59 45 -83
57 -76 38z"/>
<path d="M6870 4847 c0 -8 39 -44 88 -80 114 -86 215 -168 335 -275 158 -141
312 -271 315 -267 13 13 -89 147 -185 242 -208 207 -553 445 -553 380z"/>
<path d="M6533 4707 c-94 -53 -141 -82 -158 -98 -11 -10 -57 -44 -101 -76
-131 -93 -222 -169 -326 -272 -92 -89 -128 -136 -74 -94 13 10 65 50 117 90
52 39 117 93 144 118 86 79 283 238 358 288 39 27 74 50 76 53 9 9 -15 3 -36
-9z"/>
<path d="M6841 3665 c-60 -68 -75 -111 -75 -205 0 -83 2 -88 54 -188 51 -98
53 -107 58 -197 2 -52 2 -95 -1 -95 -6 0 -88 132 -110 179 -9 18 -14 37 -11
42 3 5 0 9 -6 9 -12 0 -70 -56 -70 -68 0 -4 -9 -63 -21 -132 -28 -170 -11
-245 70 -309 51 -41 69 -32 19 9 -50 41 -68 85 -68 167 0 78 23 221 41 255 10
19 14 20 21 8 69 -119 148 -264 158 -291 22 -61 7 -99 -65 -168 -66 -62 -81
-87 -45 -78 11 3 20 2 20 -1 0 -10 -250 -75 -258 -67 -4 4 -25 41 -47 83 -38
73 -42 77 -77 80 -46 4 -236 -40 -300 -70 -43 -19 -51 -20 -75 -7 -35 19 -120
96 -136 123 -8 14 -12 69 -12 161 0 108 -5 157 -20 215 l-20 75 -5 -41 c-3
-22 -3 -76 1 -120 4 -43 4 -124 2 -180 l-6 -100 62 -66 c96 -103 224 -170 359
-190 46 -7 89 -8 107 -3 26 8 21 10 -40 16 -38 4 -88 12 -110 19 -53 16 -125
50 -125 60 0 18 257 64 299 53 13 -3 30 -26 46 -60 29 -64 30 -73 11 -73 -8 0
-16 -4 -18 -9 -1 -5 -33 -17 -71 -27 -65 -18 -68 -18 -103 1 -38 20 -68 9 -39
-15 21 -18 19 -27 -11 -34 -22 -6 -38 4 -107 66 -116 102 -114 101 -134 94
-13 -6 0 -24 71 -95 49 -49 84 -91 80 -93 -5 -3 -34 -13 -64 -23 -97 -31 -160
-72 -160 -103 0 -22 72 -8 191 39 97 38 103 39 121 22 19 -17 18 -18 -19 -36
-21 -11 -63 -36 -93 -56 -49 -32 -52 -36 -30 -39 27 -3 99 15 172 44 46 17 48
17 68 -1 11 -10 20 -21 20 -24 0 -3 -21 -19 -48 -35 -26 -16 -57 -38 -69 -49
-31 -28 -64 -19 -225 62 -76 38 -138 66 -138 62 0 -9 133 -88 223 -132 37 -18
67 -40 67 -47 0 -9 6 -12 16 -8 8 3 23 2 32 -3 9 -4 35 -11 57 -15 l40 -6 -29
24 -29 24 44 23 c113 59 115 60 146 36 15 -12 30 -24 33 -27 5 -6 58 -30 65
-30 3 0 5 7 5 15 0 20 0 20 107 -26 51 -23 96 -39 99 -36 3 3 -8 13 -25 22
-38 19 -34 30 13 38 19 3 97 31 174 62 130 52 142 55 183 46 173 -39 450 -66
423 -42 -14 13 -160 51 -279 73 -85 15 -96 23 -51 38 28 9 40 9 51 0 7 -6 26
-10 42 -7 27 4 27 4 -4 6 -44 2 -49 16 -13 35 27 13 42 13 123 1 140 -21 144
-24 152 -90 4 -30 11 -57 15 -60 16 -10 50 81 50 134 0 65 -28 181 -44 181
-27 0 -34 -23 -29 -96 l6 -74 -49 15 c-27 8 -66 20 -87 26 l-39 10 26 24 c14
13 26 31 26 39 0 12 -12 8 -47 -15 -43 -28 -53 -30 -103 -24 -30 3 -65 8 -79
12 -23 6 -23 7 -6 19 13 9 51 14 114 15 84 0 92 2 66 12 -51 20 -35 47 53 87
54 24 95 53 139 95 86 84 98 127 88 324 -7 158 6 309 31 348 8 13 26 26 39 29
30 7 52 41 37 56 -18 18 -233 -73 -268 -113 -11 -13 -33 -53 -48 -89 -35 -84
-98 -192 -149 -255 l-40 -50 45 45 c53 53 100 124 156 235 22 44 48 88 58 97
20 17 125 60 132 53 2 -2 -1 -27 -7 -55 -6 -28 -11 -146 -11 -262 0 -195 -2
-215 -21 -255 -25 -53 -88 -108 -193 -172 l-78 -47 -72 21 c-39 11 -78 25 -86
30 -8 5 -50 11 -92 12 -80 3 -107 -8 -74 -33 17 -12 16 -13 -3 -24 -25 -13
-34 -8 -90 42 -40 37 -51 58 -31 58 5 0 28 24 50 53 22 28 61 77 86 107 44 54
144 238 144 266 0 8 4 14 9 14 19 0 41 -45 41 -81 0 -30 -9 -47 -45 -87 -43
-47 -57 -71 -35 -57 18 11 10 -12 -10 -30 -25 -22 -82 -125 -69 -125 19 0 163
158 182 199 11 25 33 63 48 84 37 52 37 91 0 209 -45 140 -61 211 -61 264 0
35 -3 45 -10 34 -19 -29 -10 -128 25 -264 37 -145 41 -181 25 -191 -5 -3 -10
3 -10 15 0 31 -53 80 -85 80 -21 0 -29 -7 -38 -32 -6 -18 -38 -86 -70 -150
-60 -120 -87 -158 -87 -122 0 11 -13 47 -30 82 -24 50 -27 67 -20 88 6 14 10
59 10 99 0 81 -14 125 -66 215 -49 83 -69 161 -54 217 14 56 41 111 75 152 37
43 14 39 -24 -4z m21 -1122 c10 -9 18 -20 18 -25 0 -10 -59 -10 -114 -1 l-39
6 44 18 c56 23 68 23 91 2z m323 -43 c28 -11 39 -19 25 -16 -14 2 -60 8 -102
11 -75 7 -87 12 -70 29 11 13 93 -1 147 -24z m-568 -36 c-3 -3 -12 -4 -19 -1
-8 3 -5 6 6 6 11 1 17 -2 13 -5z m213 0 c0 -10 -184 -102 -195 -97 -56 21 61
99 148 99 26 0 47 -1 47 -2z m-311 -29 c-2 -14 -110 -57 -126 -51 -26 10 -12
25 45 44 60 22 84 24 81 7z m523 8 c21 -12 -20 -23 -92 -22 -67 0 -72 1 -52
13 24 13 127 20 144 9z m-702 -68 c10 -12 8 -17 -13 -26 -27 -12 -57 -7 -57
11 0 6 10 15 23 20 31 12 33 12 47 -5z m235 -5 c3 -6 -1 -7 -9 -4 -18 7 -21
14 -7 14 6 0 13 -4 16 -10z m250 -16 c50 -3 51 -4 22 -20 -20 -11 -41 -13 -72
-8 -25 3 -45 9 -45 12 0 12 36 31 50 25 8 -4 29 -8 45 -9z m350 -5 c3 -3 -26
-18 -63 -33 -68 -26 -155 -35 -167 -16 -3 5 16 20 42 34 39 20 61 25 116 23
38 -1 70 -4 72 -8z m-656 -5 c39 -8 39 -18 0 -34 -26 -11 -33 -11 -46 3 -8 8
-12 20 -9 26 8 13 13 13 55 5z m-98 -44 c26 -14 24 -36 -3 -44 -31 -7 -71 30
-48 44 19 12 27 12 51 0z m299 -10 c8 -5 12 -11 10 -13 -39 -31 -88 -58 -145
-80 -85 -32 -87 -33 -111 -6 l-19 21 43 -4 c24 -2 42 1 42 7 1 16 113 84 140
84 14 0 32 -3 40 -9z m184 -40 c16 -6 10 -10 -30 -25 -74 -27 -172 -72 -203
-94 -24 -18 -32 -19 -60 -8 -17 6 -31 14 -31 18 0 3 19 11 43 18 93 28 197 73
191 83 -16 25 30 30 90 8z"/>
<path d="M6655 3631 c-53 -24 -116 -96 -137 -157 -19 -54 -38 -234 -38 -361 0
-46 -4 -83 -8 -83 -15 0 -42 57 -56 120 -16 68 -9 104 24 127 11 8 20 25 20
38 0 46 -78 45 -123 -3 -37 -39 -67 -138 -67 -222 0 -66 -1 -70 -19 -61 -10 6
-63 27 -117 46 -54 20 -118 47 -141 61 -52 30 -93 96 -93 149 0 32 -2 36 -15
25 -42 -35 10 -155 88 -206 27 -18 83 -44 125 -59 142 -50 180 -72 203 -118
12 -23 37 -59 57 -79 30 -32 33 -39 22 -53 -10 -12 -11 -18 -1 -28 10 -9 15
-8 26 6 12 17 16 16 64 -12 65 -39 75 -24 11 18 -40 26 -51 40 -65 82 -11 33
-32 66 -59 91 l-41 41 1 81 c0 59 6 96 23 139 12 31 26 57 30 57 4 0 8 -28 8
-62 2 -86 29 -157 116 -301 41 -67 86 -149 101 -182 16 -33 30 -54 33 -48 9
25 -28 121 -82 210 l-55 92 9 148 c13 180 34 301 66 364 14 27 48 67 82 95 32
26 62 52 68 56 17 14 -19 8 -60 -11z"/>
<path d="M7113 3498 c-29 -33 -43 -82 -43 -155 0 -81 -24 -200 -56 -270 -29
-67 -30 -78 -4 -37 39 61 71 175 79 285 10 121 19 145 66 165 48 20 53 34 12
34 -22 0 -40 -8 -54 -22z"/>
<path d="M6962 2979 c-19 -30 -8 -34 12 -4 9 14 13 25 9 25 -5 0 -14 -9 -21
-21z"/>
<path d="M4795 2283 c-586 -36 -880 -42 -1665 -34 -301 3 -460 0 -670 -13
-213 -13 -587 -25 -830 -27 -12 0 -12 -2 2 -10 43 -25 247 -31 853 -24 418 4
670 3 775 -5 267 -19 812 -28 1071 -19 134 5 417 13 629 19 354 8 394 11 499
34 161 36 161 39 4 67 -89 15 -154 18 -363 17 -140 -1 -277 -3 -305 -5z"/>
<path d="M7310 2272 c8 -5 49 -12 90 -16 52 -4 70 -3 59 4 -9 5 -50 12 -90 15
-48 4 -69 3 -59 -3z"/>
</g>
</svg>
