<?xml version="1.0" standalone="no"?>
<!DOCTYPE svg PUBLIC "-//W3C//DTD SVG 20010904//EN"
 "http://www.w3.org/TR/2001/REC-SVG-20010904/DTD/svg10.dtd">
<svg version="1.0" xmlns="http://www.w3.org/2000/svg"
 width="1080.000000pt" height="1080.000000pt" viewBox="0 0 1080.000000 1080.000000"
 preserveAspectRatio="xMidYMid meet">

<g transform="translate(0.000000,1080.000000) scale(0.100000,-0.100000)"
fill="#000000" stroke="none">
<path d="M6575 8949 c-27 -4 -176 -12 -330 -18 -315 -12 -463 -23 -1225 -86
-294 -24 -728 -58 -965 -75 -526 -37 -545 -39 -545 -66 0 -11 12 -13 58 -9 31
3 206 10 387 15 351 11 576 23 1335 70 439 27 927 48 1095 46 39 -1 121 3 183
7 l112 9 0 -154 c0 -136 10 -273 25 -364 5 -28 2 -33 -25 -42 -50 -18 -170
-114 -170 -137 0 -5 -9 -16 -19 -22 -26 -16 -102 -117 -134 -178 -84 -159
-118 -360 -83 -491 19 -72 63 -150 113 -199 55 -55 161 -107 235 -116 33 -4
61 -9 64 -11 2 -3 -1 -36 -7 -74 -18 -112 -51 -2409 -34 -2393 3 4 13 42 21
85 12 60 17 212 24 644 5 311 14 797 21 1080 8 283 14 548 14 588 0 57 3 72
15 72 8 0 47 5 87 10 327 43 492 387 372 779 -44 145 -144 279 -256 343 -42
24 -59 28 -131 28 -75 0 -83 2 -78 18 3 9 15 69 28 132 18 94 22 149 23 301 0
143 -3 190 -14 202 -15 19 -102 21 -196 6z m313 -736 c42 -13 70 -32 122 -84
81 -79 122 -154 151 -277 39 -163 23 -331 -43 -441 -77 -129 -223 -206 -393
-205 -174 1 -301 74 -372 213 -26 52 -28 65 -28 171 0 94 4 129 24 190 63 198
171 347 267 371 48 12 61 23 43 35 -16 10 85 42 135 43 22 1 64 -7 94 -16z"/>
<path d="M3372 8593 c-15 -34 -17 -130 -24 -983 -4 -545 -3 -1184 3 -1510 15
-874 15 -2117 1 -2730 -13 -544 -12 -558 8 -694 19 -130 25 -156 33 -145 13
16 50 226 57 324 14 184 30 1108 30 1705 -1 523 -8 956 -29 1765 -6 220 -16
634 -21 920 -6 286 -16 644 -22 795 -14 338 -16 526 -4 563 13 42 -12 34 -32
-10z"/>
<path d="M7384 6727 c-117 -70 -176 -112 -314 -226 -157 -130 -250 -220 -250
-243 0 -22 -13 -31 194 132 340 265 489 389 470 390 -5 0 -50 -24 -100 -53z"/>
<path d="M6082 6551 c2 -6 37 -36 79 -68 42 -32 133 -102 203 -155 129 -99
164 -123 172 -115 9 9 -117 115 -215 182 -56 39 -130 91 -163 118 -59 45 -83
57 -76 38z"/>
<path d="M4795 2283 c-586 -36 -880 -42 -1665 -34 -301 3 -460 0 -670 -13
-213 -13 -587 -25 -830 -27 -12 0 -12 -2 2 -10 43 -25 247 -31 853 -24 418 4
670 3 775 -5 267 -19 812 -28 1071 -19 134 5 417 13 629 19 354 8 394 11 499
34 161 36 161 39 4 67 -89 15 -154 18 -363 17 -140 -1 -277 -3 -305 -5z"/>
</g>
</svg>
